name Walk3.mot
datacolumns 19
datarows 10
range 1.27500000 1.32000000
endheader

                time	   L_ground_force_vx	   L_ground_force_vy	   L_ground_force_vz	   L_ground_force_px	   L_ground_force_py	   L_ground_force_pz	   R_ground_force_vx	   R_ground_force_vy	   R_ground_force_vz	   R_ground_force_px	   R_ground_force_py	   R_ground_force_pz	   L_ground_torque_x	   L_ground_torque_y	   L_ground_torque_z	   R_ground_torque_x	   R_ground_torque_y	   R_ground_torque_z	
          1.27500000	          6.81442036	        718.43481021	         34.81473193	         -0.27081489	          0.00000000	         -0.04147478	         -0.00547157	          0.14698366	          0.00644692	          0.00014762	          0.00000000	          0.00007059	          0.00000000	          0.33780396	          0.00000000	          0.00000000	          0.00026047	          0.00000000	
          1.28000000	         10.68197124	        724.98271322	         35.39055911	         -0.27052683	          0.00000000	         -0.04159738	         -0.01017559	          0.20288789	          0.00864656	          0.00018514	          0.00000000	          0.00008742	          0.00000000	          0.22729408	          0.00000000	          0.00000000	          0.00080942	          0.00000000	
          1.28500000	         14.66052772	        731.63754295	         35.94559914	         -0.27026896	          0.00000000	         -0.04171650	         -0.01625601	          0.26504205	          0.01101027	          0.00022083	          0.00000000	          0.00010288	          0.00000000	          0.11247431	          0.00000000	          0.00000000	          0.00156561	          0.00000000	
          1.29000000	         18.74785250	        738.34049063	         36.47826500	         -0.27003345	          0.00000000	         -0.04182837	         -0.02373287	          0.32927685	          0.01333832	          0.00024923	          0.00000000	          0.00011431	          0.00000000	         -0.00713500	          0.00000000	          0.00000000	          0.00255171	          0.00000000	
          1.29500000	         22.94689150	        745.03960234	         36.98704382	         -0.26981412	          0.00000000	         -0.04193175	         -0.03246521	          0.38883421	          0.01532364	          0.00026279	          0.00000000	          0.00011803	          0.00000000	         -0.13208573	          0.00000000	          0.00000000	          0.00377472	          0.00000000	
          1.30000000	         27.26448572	        751.68945192	         37.46901863	         -0.26960565	          0.00000000	         -0.04202620	         -0.04207836	          0.43375258	          0.01652967	          0.00025152	          0.00000000	          0.00010928	          0.00000000	         -0.26255895	          0.00000000	          0.00000000	          0.00521632	          0.00000000	
          1.30500000	         31.70883605	        758.25055301	         37.91898653	         -0.26940405	          0.00000000	         -0.04211226	         -0.05187947	          0.45030349	          0.01637176	          0.00020294	          0.00000000	          0.00008216	          0.00000000	         -0.39808896	          0.00000000	          0.00000000	          0.00682102	          0.00000000	
          1.31000000	         36.28600654	        764.69214348	         38.32985603	         -0.26920624	          0.00000000	         -0.04219143	         -0.06076493	          0.42057759	          0.01410642	          0.00010214	          0.00000000	          0.00002973	          0.00000000	         -0.53748299	          0.00000000	          0.00000000	          0.00848213	          0.00000000	
          1.31500000	         40.99584319	        770.99423968	         38.69473732	         -0.26901077	          0.00000000	         -0.04226497	         -0.06712671	          0.32235460	          0.00883417	         -0.00006763	          0.00000000	         -0.00005569	          0.00000000	         -0.67915101	          0.00000000	          0.00000000	          0.01002634	          0.00000000	
          1.32000000	         45.83054892	        777.14796788	         39.00883666	         -0.26881606	          0.00000000	         -0.04233287	         -0.06876853	          0.12943229	         -0.00047676	         -0.00032404	          0.00000000	         -0.00018203	          0.00000000	         -0.82123347	          0.00000000	          0.00000000	          0.01119782	          0.00000000	
